<svg width="50" height="50" xmlns="http://www.w3.org/2000/svg">
 <g id="Layer_1">
  <title>Layer 1</title>
  <path d="m14.625,21.625c-0.125,0.125 -0.46739,0.40486 -1.5,1.5c-1.33402,1.41479 -3.09943,3.02953 -4.25,4c-1.22363,1.0321 -1.81977,1.43991 -2.25,1.75c-0.22675,0.16343 -0.375,0.25 -0.375,0.25c0,0 0.125,0 0.5,0.125c0.75,0.25 2.2615,0.84212 3.375,1.25c1.26415,0.46307 2.43703,1.14203 4,1.75c0.84811,0.3299 1.62307,0.63509 2.25,0.75c0.74789,0.13708 1.23482,0.31168 1.625,0.375c0.24677,0.04005 0.25,0 0.375,0.125c0,0 0.00952,-0.04784 0.125,0c0.16332,0.06765 0.26224,0.35305 0.5,0.5c0.21266,0.13143 0.375,0.125 0.375,0.25c0,0 0,0 0,0c0,-0.125 -0.23969,-0.50708 -0.5,-0.875c-0.36098,-0.51021 -0.66378,-0.83987 -1,-1.25c-0.28573,-0.34854 -0.77646,-0.83927 -1.125,-1.125c-0.27342,-0.22415 -0.52325,-0.46157 -0.75,-0.625c-0.28682,-0.20673 -0.60305,-0.26224 -0.75,-0.5c-0.06572,-0.10633 -0.125,-0.125 -0.25,-0.25c-0.125,-0.125 -0.125,-0.25 -0.125,-0.25c0,0 0,-0.125 0,-0.125c0,0 0.00375,-0.06109 0.5,0c0.51153,0.06297 1.25,0.25 1.875,0.375c0.625,0.125 1.38397,0.3364 2,0.5c0.76409,0.20291 1.24548,0.26448 1.625,0.375c0.49483,0.1441 0.76662,0.07119 1.25,0.25c0.26215,0.09698 0.60297,0.18578 0.875,0.25c0.36497,0.08616 0.62987,0.09854 1.625,0c0.63428,-0.06281 1.22378,-0.37378 2.125,-0.5c0.61896,-0.08669 1.37715,-0.24169 1.875,-0.375c0.87904,-0.23539 1.37217,-0.38693 1.875,-0.5c0.62185,-0.13983 1.125,-0.25 1.75,-0.25c0.75,0 1.125,-0.125 1.375,-0.125c0.25,0 0.375,0 0.5,0c0,0 0.125,0 0.125,0c0,0 0,0 0,-0.125c0,-0.25 0,-0.875 0,-1.375c0,-0.75 0,-1.5 0,-1.625c0,-0.125 0,-0.125 0,-0.125c-0.25,0 -0.62621,0.03884 -1.25,0c-1.00583,-0.06262 -2.25283,-0.17025 -3.375,-0.25c-0.88166,-0.06266 -1.75,-0.125 -2.375,-0.125c-0.75,0 -1.25,0 -2.5,0c-0.75,0 -1.375,0 -2,0c-0.5,0 -0.875,0 -1.125,0c-0.375,0 -0.625,0 -1.125,0c-0.375,0 -0.99334,0.18734 -1.875,0.25c-0.49874,0.03544 -1,0 -1.375,0c-0.25,0 -0.28661,-0.03661 -0.375,-0.125c-0.08839,-0.08839 -0.125,0 -0.25,0c-0.125,0 -0.61724,0.06229 -1.375,0.125c-0.37372,0.03093 -0.625,0 -0.875,0c-0.125,0 -0.25,0 -0.25,0c-0.125,0 -0.125,0 -0.125,0c0,0 0,0 0,-0.125c0,0 0,-0.125 0,-0.25c0,-0.25 0.14304,-0.36677 0.25,-0.625c0.15127,-0.3652 0.25,-0.5 0.375,-0.625c0.125,-0.125 0.10659,-0.27164 0.25,-0.375c0.22675,-0.16343 0.5,-0.375 0.75,-0.625c0.125,-0.125 0.25,-0.25 0.25,-0.25c0,0 0,-0.125 0,-0.125c0,0 0.125,-0.125 0.125,-0.375c0,-0.375 0.125,-0.625 0.125,-0.875c0,-0.125 0,-0.25 0,-0.25c0,0 0.03885,-0.06687 0.25,-0.25c0.29862,-0.25899 0.71157,-0.39825 0.875,-0.625c0.10336,-0.14341 0.25,-0.125 0.25,-0.125c0,0 -0.125,0 -0.125,0c0,0 -0.13177,0.05408 -0.5,0.125c-0.661,0.1273 -1.125,0.5 -1.625,0.75c-0.5,0.25 -0.875,0.5 -1,0.625c-0.125,0.125 -0.25,0.125 -0.75,0.125l-0.375,0.125" id="svg_7" stroke="#0055ff" fill="none"/>
 </g>
</svg>