<svg width="50" height="50" xmlns="http://www.w3.org/2000/svg">
 <g id="Layer_1">
  <title>Layer 1</title>
  <path d="m9.125,25.625c-0.125,0 0,0 0.625,0c1.875,0 4,0 6.5,0c2.375,0 3.875,0 5.75,0c1.5,0 2.375,0 3.25,0c0.5,0 0.875,0 0.875,0c0.125,0 0.125,0 0.25,0c0.25,0 0.375,0 0.375,0c0.125,0 0.11548,0.04784 0,0c-0.48996,-0.20295 -0.7155,-0.90284 -1.125,-1.375c-0.4633,-0.53419 -0.875,-0.875 -1.125,-1.125c-0.125,-0.125 -0.125,-0.125 -0.125,-0.125c0.125,0 0.125,0 0.125,0c0,0 0.25334,0.09628 0.375,0.125c0.27203,0.06422 0.47013,0.30199 0.875,0.5c0.35509,0.17367 1.10854,0.53607 1.625,0.75c0.73039,0.30254 1.38994,0.59649 2.125,1c0.63893,0.35074 1.3428,0.82987 2.5,1.25c0.85538,0.31056 1.7538,0.35077 2.625,0.5c0.62823,0.10761 1.24072,0.31219 1.875,0.375c0.49757,0.04927 0.83668,0.18235 1,0.25c0.11549,0.04784 0.25,0.125 0.25,0c0,-0.125 -0.125,0 -0.25,0c-0.5,0 -1.125,0.125 -2,0.5c-0.875,0.375 -1.90414,0.81485 -3.5,1.625c-1.14755,0.58256 -2.625,1.25 -4.125,1.875c-1.5,0.625 -2.38708,0.81672 -3.125,1c-0.38363,0.09528 -0.625,0.125 -0.625,0.125c-0.125,0 0,0 0,0c0,0 0.28878,-0.21487 0.625,-0.625c0.28573,-0.34854 1.02378,-1.23519 1.25,-1.625c0.14029,-0.24175 0.33657,-0.52325 0.5,-0.75c0.20673,-0.28682 0.46168,-0.43235 0.625,-0.5c0.11548,-0.04784 0.125,0 0.125,0c0,0 0,0 0,0c-0.125,0 -0.5,0 -1.25,0c-1,0 -2.5,0 -4,0c-1.375,0 -2.625,0 -3.75,0c-1.25,0 -2.125,0 -3.125,0c-0.5,0 -1.625,0 -2,0c-0.375,0 -0.625,0 -0.75,0c0,0 -0.125,0 -0.125,0c0,0 -0.25,0 -0.625,0c-0.375,0 -0.875,0.125 -1.25,0.125c-0.25,0 -0.5,0 -0.625,0c-0.125,0 -0.125,0 -0.125,0c-0.125,0 -0.12834,-0.02872 -0.25,0c-0.27203,0.06422 -0.5,0.125 -0.625,0.125c-0.125,0 -0.125,0 -0.125,-0.125c0,-0.125 0,-0.25 0,-0.625c0,-0.5 0,-1 0,-1.5c0,-0.625 0.08616,-1.01003 0,-1.375c-0.06422,-0.27203 -0.125,-0.5 -0.125,-0.625l-0.125,0" id="svg_4" stroke="#0055ff" fill="none"/>
 </g>
</svg>