<svg width="50" height="50" xmlns="http://www.w3.org/2000/svg">
 <g id="Layer_1">
  <title>Layer 1</title>
  <path d="m20.375,17.375c-0.125,0 -1.375,0 -3.25,0c-1.25,0 -2.625,0 -3.75,0c-1.125,0 -1.625,0 -1.75,0c0,0 0.09633,-0.03242 0.375,-0.25c0.5745,-0.44855 1.51662,-0.84305 2.5,-1.375c1.5274,-0.82623 2,-1.125 3.5,-1.875c1,-0.5 1.88743,-0.97655 2.375,-1.25c1.02853,-0.57684 1.60472,-0.85472 2,-1.25c0.19764,-0.19764 0.25,-0.375 0.375,-0.5c0.125,-0.125 0.02933,-0.26903 0.125,-0.5c0.06765,-0.16332 0.29327,-0.46318 0.5,-0.75c0.16343,-0.22675 0.375,-0.625 0.625,-0.875c0.125,-0.125 0.25,-0.25 0.25,-0.25c0,0 0.12661,-0.02002 0.25,0c0.39018,0.06332 1.13569,0.35433 1.875,0.75c0.88854,0.47553 1.7815,1.0807 2.5,1.625c0.91862,0.6959 1.30846,1.09702 2,1.5c0.5816,0.33892 1.125,0.75 1.25,0.875c0.375,0.375 0.55735,0.46168 0.625,0.625c0.04784,0.11549 0.03661,0.16161 0.125,0.25c0.08839,0.08839 0.25,0.25 0.5,0.5c0.25,0.25 0.60297,0.81078 0.875,0.875c0.12165,0.02872 0.35659,0.14664 0.5,0.25c0.22675,0.16343 0.46168,0.30735 0.625,0.375c0.23097,0.09567 0.375,0.125 0.375,0.125c0.125,0.125 0.125,0.125 0.125,0.125c0,0 0,0.125 -0.125,0.125c-0.125,0 -0.5,0 -1.25,0c-0.875,0 -1.875,0 -3,0c-0.875,0 -1.25,0 -1.875,0c-0.25,0 -0.62823,0.04004 -0.875,0c-0.39018,-0.06332 -0.625,-0.25 -0.75,-0.25c0,0 0,0 0,0c0,0 -0.02464,0.12622 0,0.375c0.06281,0.63428 0.3723,1.75023 0.5,3.25c0.24483,2.87544 0.47928,5.0014 0.625,7c0.10945,1.50121 0.125,2.75 0.125,3.875c0,0.625 0,1.25 0,1.875c0,0.5 0,1.125 0,1.875c0,0.5 0,0.875 0,1.125c0,0.125 0,0.25 0,0.375c0,0 0,0 0,0c0,0.125 0,0.625 0,1.125c0,0.5 -0.125,1 -0.125,1.5c0,0.25 0,0.5 0,0.625c0,0 -0.125,0 -0.125,0c-0.25,0 -0.74687,-0.02048 -1.5,-0.125c-1.12118,-0.1556 -2.37651,-0.23984 -3.25,-0.375c-0.7514,-0.11627 -1.10982,-0.18668 -1.5,-0.25c-0.24677,-0.04005 -0.375,0 -0.375,0c0,0 0,0 0,0c0,0 0,0 -0.125,0c-0.375,0 -0.875,0 -1.375,0c-0.25,0 -0.41161,0.08839 -0.5,0c-0.08839,-0.08839 0,-0.25 0.125,-0.875c0.125,-0.625 0.22017,-1.50558 0.375,-2.25c0.2099,-1.00918 0.5,-2.375 0.625,-3.25c0.125,-0.875 0.25,-1.75 0.25,-2.875c0,-1 0.06234,-1.74334 0.125,-2.625c0.05317,-0.74811 0.06168,-1.35982 0.125,-1.75c0.08009,-0.49354 0,-1.125 0,-1.5c0,-0.375 0,-0.75 0,-1c0,-0.375 -0.125,-0.625 -0.125,-0.875c0,-0.25 -0.07918,-0.62781 -0.125,-1c-0.06297,-0.51153 -0.18235,-0.83668 -0.25,-1c-0.04784,-0.11548 -0.06078,-0.22797 -0.125,-0.5c-0.02872,-0.12166 -0.18235,-0.33668 -0.25,-0.5c-0.04784,-0.11548 0.08839,-0.16161 0,-0.25c-0.08839,-0.08839 -0.125,0 -0.125,-0.125c0,0 0,-0.125 0,-0.25c0,-0.125 0,-0.25 -0.125,-0.375c0,0 0,0 0,0l0,-0.125l0,-0.125" id="svg_8" stroke="#0055ff" fill="none"/>
 </g>
</svg>